<svg xmlns="http://www.w3.org/2000/svg" xmlns:xlink="http://www.w3.org/1999/xlink" width="500" zoomAndPan="magnify" viewBox="0 0 375 374.999991" height="500" preserveAspectRatio="xMidYMid meet" version="1.0"><defs><g/><clipPath id="9b2c840151"><path d="M 62 159 L 313.925781 159 L 313.925781 246 L 62 246 Z M 62 159 " clip-rule="nonzero"/></clipPath></defs><g clip-path="url(#9b2c840151)"><path fill="#6a3526" d="M 174.203125 245.132812 C 158.121094 245.132812 143.703125 243.160156 134.914062 238.597656 C 119.105469 230.332031 113.566406 226.195312 112.957031 221.730469 C 112.65625 219.527344 113.660156 217.363281 116.058594 215.117188 C 120.855469 210.59375 128.738281 214.703125 137.0625 219.058594 C 141.691406 221.484375 146.476562 223.976562 150.511719 224.816406 C 154.769531 225.699219 156.523438 223.148438 159.058594 218.945312 C 161.59375 214.742188 164.570312 209.683594 172.164062 211.285156 C 178.65625 212.664062 180.433594 217.292969 181.90625 221.015625 C 183.589844 225.367188 184.511719 227.765625 191.554688 225.257812 C 196.910156 223.195312 201.617188 220.136719 205.679688 216.082031 C 210.050781 212.152344 213.824219 208.761719 219.917969 210.953125 C 222.613281 211.972656 225.074219 213.398438 227.304688 215.226562 C 230.804688 217.898438 232.566406 219.25 239.554688 214.578125 C 244.113281 211.546875 248.828125 208.789062 253.710938 206.308594 C 252.949219 204.378906 252.082031 202.476562 251.257812 200.644531 L 250.664062 199.347656 C 247.90625 193.328125 239.96875 189.507812 232.925781 186.148438 L 230.390625 184.933594 C 230.507812 185.878906 230.519531 186.828125 230.433594 187.777344 C 230.34375 188.726562 230.15625 189.65625 229.867188 190.5625 C 229.578125 191.472656 229.195312 192.339844 228.71875 193.167969 C 228.242188 193.992188 227.683594 194.757812 227.042969 195.464844 C 222.230469 200.6875 218.261719 202.671875 215.546875 201.210938 C 212.585938 199.609375 212.144531 194.511719 214.253906 186.050781 C 218.097656 170.683594 215.148438 167.859375 205.75 163.683594 C 203.84375 162.871094 201.859375 162.417969 199.792969 162.316406 C 197.726562 162.214844 195.707031 162.472656 193.730469 163.089844 C 196.378906 169.5 201.574219 192.03125 194.351562 197.171875 C 193.742188 197.660156 193.054688 197.960938 192.285156 198.078125 C 191.511719 198.199219 190.765625 198.117188 190.039062 197.832031 C 185.40625 195.945312 182.898438 185.621094 181.066406 175.78125 L 181.066406 175.4375 C 180.613281 173.617188 179.839844 171.949219 178.742188 170.425781 C 177.648438 168.902344 176.308594 167.640625 174.726562 166.632812 C 173.785156 166.023438 172.789062 165.515625 171.742188 165.113281 C 170.695312 164.710938 169.617188 164.421875 168.507812 164.242188 C 167.402344 164.0625 166.289062 164 165.167969 164.050781 C 164.046875 164.105469 162.941406 164.269531 161.855469 164.550781 C 160.953125 164.683594 160.082031 164.941406 159.253906 165.320312 C 158.421875 165.699219 157.65625 166.183594 156.964844 166.777344 C 156.269531 167.371094 155.667969 168.050781 155.164062 168.8125 C 154.660156 169.574219 154.273438 170.390625 154 171.261719 C 159.734375 172.972656 166.871094 180.632812 170.539062 187.800781 C 173.433594 193.4375 173.777344 198.054688 171.488281 200.78125 C 166.898438 206.296875 159.511719 200.546875 152.992188 195.476562 C 149.6875 192.886719 146.269531 190.226562 143.441406 189.097656 C 136.648438 186.339844 126.382812 182.207031 114.667969 205.136719 C 113.449219 207.628906 111.957031 209.941406 110.195312 212.082031 C 108.433594 214.222656 106.449219 216.132812 104.238281 217.804688 C 102.03125 219.480469 99.65625 220.878906 97.121094 222 C 94.585938 223.117188 91.953125 223.929688 89.226562 224.433594 C 84.664062 225.289062 80.078125 225.449219 75.46875 224.914062 C 70.859375 224.382812 66.433594 223.179688 62.1875 221.304688 L 63.34375 218.808594 C 76.246094 224.722656 100.925781 225.894531 112.214844 203.882812 C 123.984375 180.703125 134.980469 182.769531 144.378906 186.519531 C 147.578125 187.800781 151.148438 190.652344 154.605469 193.285156 C 161.730469 198.796875 166.609375 202.230469 169.296875 199.003906 C 170.800781 197.199219 170.332031 193.574219 168 189.039062 C 164.320312 181.847656 157.417969 175.011719 152.980469 173.882812 C 151.890625 177.023438 150.691406 180.21875 147.039062 182.148438 C 144.808594 183.390625 143.113281 183.527344 141.996094 182.617188 C 141.429688 182.164062 140.617188 181.046875 141.335938 178.773438 C 141.710938 177.734375 142.21875 176.765625 142.859375 175.867188 C 143.5 174.964844 144.25 174.167969 145.109375 173.472656 C 145.964844 172.78125 146.902344 172.210938 147.917969 171.773438 C 148.929688 171.335938 149.984375 171.039062 151.078125 170.890625 C 152.457031 167.140625 154.550781 163.3125 161.152344 161.820312 C 162.414062 161.503906 163.695312 161.320312 164.996094 161.265625 C 166.296875 161.210938 167.585938 161.292969 168.871094 161.503906 C 170.15625 161.714844 171.402344 162.058594 172.617188 162.527344 C 173.832031 162.996094 174.984375 163.582031 176.078125 164.289062 C 177.976562 165.5 179.578125 167.023438 180.882812 168.859375 C 182.1875 170.695312 183.097656 172.710938 183.617188 174.902344 L 183.617188 175.230469 C 185.902344 187.46875 188.371094 194.207031 190.921875 195.242188 C 191.210938 195.351562 191.511719 195.375 191.816406 195.3125 C 192.125 195.253906 192.390625 195.113281 192.617188 194.898438 C 197.90625 191.148438 193.730469 169.828125 190.933594 163.875 L 189.292969 164.453125 C 186.539062 165.417969 184.386719 166.191406 182.582031 165.652344 C 182.324219 165.609375 182.078125 165.523438 181.851562 165.394531 C 181.621094 165.261719 181.421875 165.097656 181.253906 164.898438 C 181.082031 164.695312 180.953125 164.472656 180.859375 164.226562 C 180.769531 163.980469 180.722656 163.726562 180.722656 163.460938 C 180.722656 161.601562 183.355469 160.128906 185.726562 159.546875 C 186.796875 159.195312 187.890625 159.117188 189.003906 159.3125 C 190.117188 159.507812 191.121094 159.953125 192.007812 160.652344 C 194.40625 159.816406 196.875 159.441406 199.414062 159.523438 C 201.953125 159.605469 204.390625 160.144531 206.726562 161.132812 C 217.644531 165.984375 220.796875 170.574219 216.773438 186.683594 C 214.816406 194.539062 215.507812 198.082031 216.773438 198.730469 C 218.042969 199.375 220.910156 197.957031 224.917969 193.535156 C 225.53125 192.851562 226.046875 192.101562 226.464844 191.289062 C 226.886719 190.476562 227.199219 189.621094 227.402344 188.730469 C 227.609375 187.835938 227.699219 186.933594 227.675781 186.015625 C 227.652344 185.101562 227.511719 184.203125 227.261719 183.320312 C 223.457031 181.242188 220.855469 179.1875 220.703125 176.429688 C 220.578125 174.210938 221.625 173.535156 222.257812 173.328125 C 224.4375 172.613281 226.65625 175.644531 227.511719 176.980469 C 228.414062 178.382812 229.109375 179.882812 229.605469 181.476562 C 230.984375 182.207031 232.527344 182.851562 234.042969 183.652344 C 241.5 187.222656 249.960938 191.257812 253.089844 198.191406 L 253.679688 199.488281 C 254.480469 201.265625 255.335938 203.140625 256.105469 205.097656 C 267.367188 199.804688 279.371094 196.828125 288.726562 200.960938 C 293.8125 203.234375 297.121094 206.859375 300.042969 210.042969 C 305.914062 216.464844 309.800781 220.722656 324.132812 211.421875 L 325.621094 213.738281 C 309.34375 224.226562 303.832031 218.203125 298.058594 211.835938 C 295.191406 208.691406 292.214844 205.453125 287.652344 203.414062 C 279.09375 199.597656 267.808594 202.492188 257.097656 207.550781 C 258.710938 212.429688 259.429688 217.597656 257.195312 222.449219 C 254.441406 228.621094 247.316406 233.28125 235.65625 236.683594 C 215.546875 242.230469 195.0625 245.046875 174.203125 245.132812 Z M 121.324219 215.941406 C 120.039062 215.875 118.914062 216.265625 117.945312 217.113281 C 115.6875 219.234375 115.578125 220.558594 115.6875 221.359375 C 116.195312 225.066406 124.257812 229.957031 136.179688 236.144531 C 155.597656 246.234375 203.777344 243.175781 234.871094 234.121094 C 245.714844 230.949219 252.207031 226.789062 254.6875 221.371094 C 256.492188 217.429688 255.96875 213.101562 254.605469 208.859375 C 249.929688 211.265625 245.40625 213.941406 241.042969 216.878906 C 232.773438 222.390625 229.824219 220.640625 225.59375 217.417969 C 223.589844 215.765625 221.378906 214.472656 218.953125 213.542969 C 214.402344 211.917969 211.648438 214.386719 207.484375 218.121094 C 203.152344 222.421875 198.136719 225.664062 192.4375 227.851562 C 182.925781 231.265625 181.011719 226.347656 179.332031 222.019531 C 177.953125 218.4375 176.574219 215.046875 171.585938 213.984375 C 165.976562 212.785156 163.851562 216.300781 161.414062 220.367188 C 158.976562 224.433594 156.328125 228.828125 149.960938 227.519531 C 145.539062 226.59375 140.578125 224.003906 135.792969 221.511719 C 130.597656 218.753906 125.085938 215.941406 121.324219 215.941406 Z M 150.015625 173.882812 C 148.914062 174.230469 147.910156 174.761719 147 175.472656 C 146.089844 176.183594 145.332031 177.03125 144.726562 178.015625 C 144.191406 178.75 143.878906 179.566406 143.789062 180.46875 C 144.496094 180.371094 145.152344 180.132812 145.757812 179.753906 C 148.128906 178.375 149.136719 176.320312 150.015625 173.882812 Z M 223.5 176.320312 C 223.832031 177.484375 224.519531 178.371094 225.566406 178.980469 C 225.019531 177.984375 224.328125 177.097656 223.5 176.320312 Z M 188.027344 162.015625 C 186.738281 162.058594 185.53125 162.402344 184.414062 163.046875 C 185.652344 162.820312 186.855469 162.476562 188.027344 162.015625 Z M 188.027344 162.015625 " fill-opacity="1" fill-rule="nonzero"/></g><g fill="#6a3526" fill-opacity="1"><g transform="translate(112.867991, 178.048389)"><g><path d="M 8.300781 -7.308594 C 12.199219 -10.898438 12.421875 -16.917969 8.855469 -20.789062 C 5.289062 -24.664062 -0.730469 -24.933594 -4.625 -21.34375 C -8.5 -17.777344 -8.746094 -11.738281 -5.179688 -7.863281 C -1.613281 -3.988281 4.429688 -3.742188 8.300781 -7.308594 Z M 6.957031 -8.765625 C 3.882812 -5.933594 -0.867188 -6.109375 -3.722656 -9.207031 C -6.574219 -12.304688 -6.359375 -17.054688 -3.28125 -19.886719 C -0.183594 -22.738281 4.542969 -22.546875 7.398438 -19.445312 C 10.25 -16.347656 10.058594 -11.621094 6.957031 -8.765625 Z M 6.957031 -8.765625 "/></g></g></g><g fill="#6a3526" fill-opacity="1"><g transform="translate(130.155608, 162.703083)"><g><path d="M 1.925781 -22.875 L 5.394531 -6.226562 L -7.722656 -17.046875 L -9.605469 -15.910156 L 5.753906 -3.472656 L 7.636719 -4.613281 L 3.785156 -23.996094 Z M 1.925781 -22.875 "/></g></g></g><g fill="#6a3526" fill-opacity="1"><g transform="translate(144.666028, 154.116138)"><g><path d="M 5.523438 -20.132812 L 4.8125 -21.917969 L -4.625 -18.160156 L 2.246094 -0.894531 L 11.683594 -4.648438 L 10.976562 -6.433594 L 3.375 -3.410156 L 1.007812 -9.367188 L 7.625 -12.003906 L 6.914062 -13.785156 L 0.296875 -11.152344 L -2.074219 -17.109375 Z M 5.523438 -20.132812 "/></g></g></g><g fill="#6a3526" fill-opacity="1"><g transform="translate(159.066933, 148.229299)"><g><path d="M 11.726562 -21.25 L 14.675781 -6.265625 L 0.453125 -19.03125 L -1.371094 -18.671875 L 2.21875 -0.4375 L 4.164062 -0.820312 L 1.214844 -15.804688 L 15.410156 -3.03125 L 17.230469 -3.390625 L 13.644531 -21.628906 Z M 11.726562 -21.25 "/></g></g></g><g fill="#6a3526" fill-opacity="1"><g transform="translate(179.871748, 144.708873)"><g/></g></g><g fill="#6a3526" fill-opacity="1"><g transform="translate(188.776639, 144.155486)"><g><path d="M 10.496094 -7.59375 C 12.964844 -7.71875 14.996094 -9.589844 15.214844 -12.089844 C 15.472656 -14.988281 13.359375 -17.476562 10.519531 -17.726562 L 3.886719 -18.3125 L 2.253906 0.199219 L 4.226562 0.375 L 4.964844 -7.988281 L 8.453125 -7.679688 L 12.960938 1.144531 L 15.210938 1.34375 Z M 5.132812 -9.871094 L 5.6875 -16.164062 L 10.222656 -15.765625 C 12.074219 -15.601562 13.410156 -14.175781 13.246094 -12.324219 C 13.082031 -10.445312 11.550781 -9.304688 9.667969 -9.46875 Z M 5.132812 -9.871094 "/></g></g></g><g fill="#6a3526" fill-opacity="1"><g transform="translate(205.469219, 145.775898)"><g><path d="M 16.335938 -13 L 16.816406 -14.859375 L 6.976562 -17.394531 L 2.339844 0.601562 L 12.179688 3.136719 L 12.65625 1.277344 L 4.738281 -0.761719 L 6.339844 -6.972656 L 13.238281 -5.195312 L 13.714844 -7.054688 L 6.816406 -8.832031 L 8.417969 -15.039062 Z M 16.335938 -13 "/></g></g></g><g fill="#6a3526" fill-opacity="1"><g transform="translate(220.621829, 149.732924)"><g><path d="M 12.320312 5.453125 L 14.304688 6.332031 L 15.679688 -13.382812 L 13.667969 -14.273438 L 0 0 L 1.984375 0.878906 L 5.125 -2.472656 L 12.6875 0.875 Z M 6.484375 -3.9375 L 13.734375 -11.671875 L 12.859375 -1.117188 Z M 6.484375 -3.9375 "/></g></g></g><g fill="#6a3526" fill-opacity="1"><g transform="translate(235.957665, 156.508026)"><g><path d="M 1.867188 1.273438 L 6.0625 4.136719 C 10.285156 7.019531 16.078125 5.949219 18.976562 1.699219 C 21.875 -2.546875 20.761719 -8.332031 16.539062 -11.210938 L 12.34375 -14.074219 Z M 4.597656 0.738281 L 12.839844 -11.339844 L 15.398438 -9.59375 C 18.800781 -7.269531 19.695312 -2.871094 17.339844 0.582031 C 14.984375 4.039062 10.558594 4.804688 7.15625 2.484375 Z M 4.597656 0.738281 "/></g></g></g><g fill="#6a3526" fill-opacity="1"><g transform="translate(251.737488, 167.569485)"><g><path d="M 23.722656 -2.714844 L 21.980469 -4.433594 L 12.992188 -2.460938 L 14.832031 -11.476562 L 13.066406 -13.214844 L 10.828125 -1.679688 L 4.65625 4.585938 L 6.066406 5.980469 L 12.261719 -0.308594 Z M 23.722656 -2.714844 "/></g></g></g><g fill="#6a3526" fill-opacity="1"><g transform="translate(160.037776, 268.788645)"><g><path d="M 7.378906 -6.078125 C 8.4375 -6.558594 9.136719 -7.519531 9.136719 -8.796875 C 9.136719 -10.679688 7.660156 -12 5.820312 -12 L 1.460938 -12 L 1.460938 0 L 6.238281 0 C 8.058594 0 9.519531 -1.300781 9.519531 -3.160156 C 9.519531 -4.621094 8.636719 -5.660156 7.378906 -6.078125 Z M 7.859375 -8.699219 C 7.859375 -7.519531 6.878906 -6.617188 5.679688 -6.617188 L 2.71875 -6.617188 L 2.71875 -10.71875 L 5.679688 -10.71875 C 6.878906 -10.71875 7.859375 -9.878906 7.859375 -8.699219 Z M 6.078125 -1.28125 L 2.71875 -1.28125 L 2.71875 -5.378906 L 6.078125 -5.378906 C 7.257812 -5.378906 8.238281 -4.480469 8.238281 -3.300781 C 8.238281 -2.121094 7.257812 -1.28125 6.078125 -1.28125 Z M 6.078125 -1.28125 "/></g></g></g><g fill="#6a3526" fill-opacity="1"><g transform="translate(171.999235, 268.788645)"><g><path d="M 8.699219 0 L 10.097656 0 L 5.757812 -12 L 4.339844 -12 L 0 0 L 1.398438 0 L 2.378906 -2.800781 L 7.71875 -2.800781 Z M 2.800781 -4.019531 L 5.058594 -10.476562 L 7.300781 -4.019531 Z M 2.800781 -4.019531 "/></g></g></g><g fill="#6a3526" fill-opacity="1"><g transform="translate(183.600789, 268.788645)"><g><path d="M 8.617188 0 L 10.398438 0 L 4.699219 -6.460938 L 10.179688 -12 L 8.398438 -12 L 3.578125 -7.078125 L 2.738281 -7.078125 L 2.738281 -12 L 1.460938 -12 L 1.460938 0 L 2.738281 0 L 2.738281 -5.878906 L 3.597656 -5.878906 Z M 8.617188 0 "/></g></g></g><g fill="#6a3526" fill-opacity="1"><g transform="translate(195.362298, 268.788645)"><g><path d="M 8.117188 -10.757812 L 8.117188 -12 L 1.558594 -12 L 1.558594 0 L 8.117188 0 L 8.117188 -1.238281 L 2.839844 -1.238281 L 2.839844 -5.378906 L 7.4375 -5.378906 L 7.4375 -6.617188 L 2.839844 -6.617188 L 2.839844 -10.757812 Z M 8.117188 -10.757812 "/></g></g></g><g fill="#6a3526" fill-opacity="1"><g transform="translate(206.184039, 268.788645)"><g><path d="M 4.480469 0.160156 C 6.519531 0.160156 8.179688 -1.058594 8.179688 -3.160156 C 8.179688 -7.238281 2.339844 -6.238281 2.339844 -9.097656 C 2.339844 -10.296875 3.320312 -10.878906 4.4375 -10.878906 C 5.359375 -10.878906 6.117188 -10.5 6.597656 -9.820312 L 7.597656 -10.660156 C 6.9375 -11.5 5.777344 -12.15625 4.398438 -12.15625 C 2.558594 -12.15625 1.058594 -10.957031 1.058594 -9 C 1.058594 -5.140625 6.898438 -6.097656 6.898438 -3.121094 C 6.898438 -1.839844 5.839844 -1.121094 4.5 -1.121094 C 3.140625 -1.121094 2.160156 -1.859375 1.738281 -2.960938 L 0.578125 -2.28125 C 1.199219 -0.800781 2.699219 0.160156 4.480469 0.160156 Z M 4.480469 0.160156 "/></g></g></g></svg>